<svg xmlns="http://www.w3.org/2000/svg" width="32" height="32" viewBox="0 0 32 32">
  <rect width="32" height="32" rx="7" fill="#769656" />
  <svg x="4" y="4" width="24" height="24" viewBox="0 0 504 504">
    <path fill="#eeeed2" d="M155.21 472.75c-8.08-4.03-9.28-27.81-2.43-47.96 5.86-17.22 12.62-26.32 38.46-51.77 23.28-22.93 29.48-30.48 36.72-44.7 8.65-16.97 12.05-30.4 12.96-51.05.32-7.29.34-13.25.05-13.25s-5.2 2.85-10.9 6.34c-5.7 3.48-18.53 10.48-28.52 15.55-37.9 19.24-43.85 24.89-60.76 57.69-3.14 6.09-7.72 13.64-10.19 16.78-7.88 10.05-20.56 17.64-29.45 17.64-3.794 0-10.746-2.61-14.429-5.42-1.717-1.31-3.934-4.18-4.927-6.38-1.633-3.63-2.243-4.07-6.446-4.69-28.706-4.23-49.063-29.2-46.807-57.42 1.451-18.14 9.614-36.28 30.142-66.97 14.049-21 19.759-31.19 23.676-42.24 2.03-5.73 2.266-8.28 2.304-24.88l.043-18.5 3.239-6.84c2.699-5.7 5.539-9.12 17.025-20.5 7.58-7.51 15.08-15.59 16.68-17.96l2.9-4.3-2.2-27.7c-3.02-38.182-3.03-38.083 3.18-40.693 4.23-1.778 4.02-1.877 35.99 17.358 14.75 8.874 27.16 16.135 27.58 16.135s8.32-8.09 17.56-17.978c13.92-14.899 17.39-18.09 20.26-18.628 6.11-1.146 7.55.899 19.98 28.219l11.4 25.044 6.2-.909c8.91-1.305 30.6-.154 41.86 2.22 20.46 4.311 40.77 13.106 57.21 24.772 10.98 7.79 28.66 25.67 36.84 37.26 17.69 25.05 30.51 53.08 42.26 92.42 20.17 67.54 32.6 146.52 32.93 209.29.1 19.77.06 20.27-2.17 22.5l-2.28 2.29-156.72.24c-123.65.19-157.25-.02-159.22-1.01" />
  </svg>
</svg>
